<?xml version="1.0" encoding="UTF-8"?>
<!DOCTYPE svg PUBLIC "-//W3C//DTD SVG 1.1//EN" "http://www.w3.org/Graphics/SVG/1.1/DTD/svg11.dtd">
<!-- Creator: CorelDRAW 2017 -->
<svg xmlns="http://www.w3.org/2000/svg" xml:space="preserve" width="503px" height="491px" version="1.1" shape-rendering="geometricPrecision" text-rendering="geometricPrecision" image-rendering="optimizeQuality" fill-rule="evenodd" clip-rule="evenodd"
viewBox="0 0 461.76 450.35"
 xmlns:xlink="http://www.w3.org/1999/xlink">
 <g id="Layer_x0020_1">
  <metadata id="CorelCorpID_0Corel-Layer"/>
  <path fill="#FEFEFE" d="M230.88 0c-127.49,0 -230.88,103.36 -230.88,230.88 0,102 66.15,188.55 157.89,219.08 11.54,2.13 15.77,-5.01 15.77,-11.11 0,-5.51 -0.21,-23.69 -0.31,-42.98 -64.23,13.96 -77.78,-27.25 -77.78,-27.25 -10.51,-26.68 -25.64,-33.78 -25.64,-33.78 -20.95,-14.33 1.58,-14.03 1.58,-14.03 23.18,1.62 35.39,23.79 35.39,23.79 20.59,35.29 54.01,25.09 67.19,19.19 2.07,-14.92 8.05,-25.11 14.66,-30.87 -51.29,-5.84 -105.19,-25.64 -105.19,-114.1 0,-25.21 9.02,-45.8 23.79,-61.97 -2.4,-5.82 -10.3,-29.3 2.23,-61.1 0,0 19.39,-6.21 63.51,23.66 18.42,-5.11 38.17,-7.68 57.79,-7.77 19.62,0.09 39.39,2.66 57.84,7.77 44.06,-29.87 63.42,-23.66 63.42,-23.66 12.57,31.8 4.67,55.28 2.27,61.1 14.81,16.17 23.76,36.76 23.76,61.97 0,88.68 -54.01,108.2 -105.42,113.92 8.28,7.16 15.66,21.21 15.66,42.75 0,30.89 -0.27,55.76 -0.27,63.36 0,6.14 4.16,13.34 15.86,11.08 91.68,-30.57 157.76,-117.08 157.76,-219.05 0,-127.52 -103.38,-230.88 -230.88,-230.88z"/>
  <path fill="#FEFEFE" d="M87.45 331.49c-0.51,1.15 -2.32,1.49 -3.96,0.7 -1.68,-0.75 -2.61,-2.31 -2.07,-3.46 0.49,-1.18 2.3,-1.51 3.97,-0.73 1.68,0.76 2.64,2.34 2.06,3.49l0 0z"/>
  <path fill="#FEFEFE" d="M96.8 341.92c-1.1,1.02 -3.26,0.55 -4.72,-1.07 -1.51,-1.61 -1.79,-3.76 -0.67,-4.8 1.13,-1.02 3.22,-0.54 4.73,1.07 1.51,1.63 1.81,3.77 0.66,4.8l0 0z"/>
  <path fill="#FEFEFE" d="M105.9 355.22c-1.41,0.98 -3.73,0.06 -5.16,-1.99 -1.41,-2.06 -1.41,-4.52 0.04,-5.51 1.43,-0.98 3.71,-0.1 5.16,1.94 1.41,2.09 1.41,4.55 -0.04,5.56l0 0z"/>
  <path fill="#FEFEFE" d="M118.37 368.06c-1.26,1.4 -3.96,1.02 -5.93,-0.88 -2.02,-1.86 -2.58,-4.5 -1.31,-5.9 1.28,-1.4 3.99,-1.01 5.98,0.88 2,1.86 2.61,4.52 1.26,5.9l0 0z"/>
  <path fill="#FEFEFE" d="M135.58 375.52c-0.56,1.81 -3.16,2.63 -5.77,1.86 -2.61,-0.79 -4.32,-2.91 -3.8,-4.73 0.55,-1.82 3.15,-2.68 5.79,-1.86 2.61,0.79 4.32,2.89 3.78,4.73l0 0z"/>
  <path fill="#FEFEFE" d="M154.47 376.91c0.07,1.9 -2.15,3.48 -4.9,3.51 -2.75,0.06 -4.99,-1.48 -5.02,-3.35 0,-1.92 2.17,-3.49 4.93,-3.53 2.74,-0.06 4.99,1.47 4.99,3.37l0 0z"/>
  <path fill="#FEFEFE" d="M172.05 373.91c0.33,1.86 -1.57,3.77 -4.3,4.28 -2.68,0.49 -5.16,-0.66 -5.5,-2.5 -0.33,-1.91 1.61,-3.82 4.28,-4.31 2.73,-0.47 5.18,0.64 5.52,2.53l0 0z"/>
 </g>
</svg>
