<?xml version="1.0" encoding="UTF-8"?>
<!DOCTYPE svg PUBLIC "-//W3C//DTD SVG 1.1//EN" "http://www.w3.org/Graphics/SVG/1.1/DTD/svg11.dtd">
<!-- Creator: CorelDRAW 2017 -->
<svg xmlns="http://www.w3.org/2000/svg" xml:space="preserve" width="42.6072mm" height="41.5549mm" version="1.1" style="shape-rendering:geometricPrecision; text-rendering:geometricPrecision; image-rendering:optimizeQuality; fill-rule:evenodd; clip-rule:evenodd"
viewBox="0 0 4141.06 4038.78"
 xmlns:xlink="http://www.w3.org/1999/xlink">
 <defs>
  <style type="text/css">
   <![CDATA[
    .fil0 {fill:#323030}
   ]]>
  </style>
 </defs>
 <g id="Layer_x0020_1">
  <metadata id="CorelCorpID_0Corel-Layer"/>
  <path class="fil0" d="M2070.53 0c-1143.37,0 -2070.53,926.95 -2070.53,2070.51 0,914.81 593.27,1690.93 1415.95,1964.71 103.48,19.17 141.46,-44.91 141.46,-99.6 0,-49.37 -1.91,-212.48 -2.81,-385.49 -576.02,125.25 -697.57,-244.3 -697.57,-244.3 -94.18,-239.31 -229.89,-302.97 -229.89,-302.97 -187.86,-128.52 14.15,-125.86 14.15,-125.86 207.92,14.6 317.4,213.38 317.4,213.38 184.67,316.52 484.37,225.02 602.53,172.11 18.58,-133.8 72.24,-225.17 131.45,-276.88 -459.89,-52.33 -943.34,-229.89 -943.34,-1023.24 0,-226.05 80.89,-410.76 213.34,-555.76 -21.49,-52.17 -92.37,-262.75 20.06,-547.96 0,0 173.9,-55.61 569.54,212.27 165.17,-45.89 342.29,-68.89 518.24,-69.7 175.97,0.8 353.23,23.8 518.7,69.7 395.19,-267.89 568.81,-212.27 568.81,-212.27 112.7,285.21 41.8,495.78 20.3,547.96 132.79,145 213.09,329.71 213.09,555.76 0,795.26 -484.37,970.34 -945.43,1021.61 74.26,64.25 140.44,190.25 140.44,383.43 0,277.04 -2.4,500.01 -2.4,568.21 0,55.1 37.27,119.66 142.22,99.33 822.24,-274.09 1414.79,-1049.93 1414.79,-1964.43 0.01,-1143.56 -927.05,-2070.51 -2070.52,-2070.51z"/>
  <path class="fil0" d="M784.21 2972.79c-4.56,10.31 -20.74,13.39 -35.48,6.33 -15.02,-6.76 -23.41,-20.79 -18.58,-31.1 4.46,-10.58 20.67,-13.53 35.66,-6.46 15.05,6.76 23.63,20.93 18.41,31.24l0 0z"/>
  <path class="fil0" d="M868.11 3066.34c-9.91,9.14 -29.22,4.89 -42.32,-9.58 -13.54,-14.43 -16.08,-33.74 -6.06,-43.02 10.19,-9.15 28.9,-4.86 42.48,9.57 13.55,14.6 16.18,33.74 5.9,43.03l0 0z"/>
  <path class="fil0" d="M949.72 3185.58c-12.68,8.83 -33.43,0.56 -46.25,-17.84 -12.68,-18.42 -12.68,-40.52 0.31,-49.36 12.82,-8.83 33.26,-0.87 46.25,17.38 12.65,18.72 12.64,40.82 -0.31,49.83l0 0z"/>
  <path class="fil0" d="M1061.56 3300.79c-11.35,12.52 -35.52,9.16 -53.22,-7.92 -18.1,-16.7 -23.1,-40.39 -11.76,-52.9 11.53,-12.56 35.83,-9.02 53.63,7.92 17.97,16.66 23.45,40.52 11.34,52.9l0.01 0z"/>
  <path class="fil0" d="M1215.86 3367.69c-5.01,16.21 -28.29,23.59 -51.74,16.7 -23.41,-7.1 -38.74,-26.1 -34.02,-42.48 4.88,-16.33 28.25,-24.01 51.88,-16.63 23.38,7.06 38.74,25.92 33.87,42.41l0.01 0z"/>
  <path class="fil0" d="M1385.33 3380.1c0.55,17.07 -19.33,31.23 -43.95,31.54 -24.73,0.55 -44.79,-13.27 -45.06,-30.07 0,-17.24 19.44,-31.27 44.19,-31.67 24.63,-0.49 44.82,13.23 44.82,30.21l0 0z"/>
  <path class="fil0" d="M1542.98 3353.24c2.95,16.67 -14.16,33.77 -38.6,38.33 -24.04,4.39 -46.25,-5.89 -49.34,-22.42 -2.97,-17.08 14.43,-34.18 38.44,-38.6 24.48,-4.26 46.39,5.76 49.51,22.69l0 0z"/>
 </g>
</svg>
