<?xml version="1.0" encoding="UTF-8"?>
<!DOCTYPE svg PUBLIC "-//W3C//DTD SVG 1.1//EN" "http://www.w3.org/Graphics/SVG/1.1/DTD/svg11.dtd">
<svg xmlns="http://www.w3.org/2000/svg" xml:space="preserve" width="473px" height="473px" version="1.1" shape-rendering="geometricPrecision" text-rendering="geometricPrecision" image-rendering="optimizeQuality" fill-rule="evenodd" clip-rule="evenodd"
viewBox="0 0 299.68 299.68"
 xmlns:xlink="http://www.w3.org/1999/xlink">
 <g id="Layer_x0020_1">
  <metadata id="CorelCorpID_0Corel-Layer"/>
  <path id="Shape" fill="#4285F4" d="M293.69 153.25c0,-10.62 -0.95,-20.84 -2.72,-30.65l-141.13 0 0 57.96 80.64 0c-3.47,18.73 -14.02,34.6 -29.89,45.23l0 37.59 48.42 0c28.33,-26.08 44.68,-64.5 44.68,-110.13l0 0z"/>
  <path id="Shape_0" fill="#34A853" d="M149.84 299.68c40.46,0 74.38,-13.41 99.17,-36.3l-48.42 -37.59c-13.42,8.99 -30.58,14.3 -50.75,14.3 -39.02,0 -72.06,-26.36 -83.84,-61.78l-50.06 0 0 38.83c24.66,48.97 75.33,82.54 133.9,82.54l0 0z"/>
  <path id="Shape_1" fill="#FBBC05" d="M66 178.31c-2.99,-8.98 -4.7,-18.59 -4.7,-28.47 0,-9.87 1.71,-19.48 4.7,-28.46l0 -38.83 -50.06 0c-10.14,20.23 -15.94,43.12 -15.94,67.29 0,24.18 5.8,47.07 15.94,67.3l50.06 -38.83 0 0z"/>
  <path id="Shape_2" fill="#EA4335" d="M149.84 59.6c22,0 41.76,7.56 57.29,22.4l42.97 -42.97c-25.95,-24.18 -59.86,-39.03 -100.26,-39.03 -58.57,0 -109.24,33.58 -133.9,82.55l50.06 38.83c11.78,-35.42 44.82,-61.78 83.84,-61.78l0 0z"/>
  <polygon id="Shape_3" fill="none" points="0,0 299.68,0 299.68,299.68 0,299.68 "/>
 </g>
</svg>
