<svg xmlns="http://www.w3.org/2000/svg" width="122.1" height="40.9" viewBox="0 0 122.1 40.9"><g transform="translate(-80.7 -99.7)"><path d="M112.7,140.6H89.6a8.92,8.92,0,0,1-8.9-8.9V108.6a8.92,8.92,0,0,1,8.9-8.9h23.1a8.92,8.92,0,0,1,8.9,8.9v23.1A8.92,8.92,0,0,1,112.7,140.6Z" fill="#8700ec"/><path d="M88.3,127.3v13.3h7.2v-6.2h-.4C91.6,134.4,88.7,131.3,88.3,127.3Z" fill="#ffa0ad"/><path d="M114,113.4a6.124,6.124,0,0,0-6.1-6.1H94.4a6.124,6.124,0,0,0-6.1,6.1v14.2a6.238,6.238,0,0,0,6.1,5.4h13.5a6.124,6.124,0,0,0,6.1-6.1Z" fill="#ffa0ad"/><path d="M96.6,123.7H94.7a2.006,2.006,0,0,1-2-2v-1.9a2.006,2.006,0,0,1,2-2h1.9a2.006,2.006,0,0,1,2,2v1.9A2.149,2.149,0,0,1,96.6,123.7Z" fill="#8700ec"/><path d="M107.6,123.7h-1.9a2.006,2.006,0,0,1-2-2v-1.9a2.006,2.006,0,0,1,2-2h1.9a2.006,2.006,0,0,1,2,2v1.9A2.149,2.149,0,0,1,107.6,123.7Z" fill="#8700ec"/><path d="M137.6,112.7a6.042,6.042,0,0,1,2.4.5,5.748,5.748,0,0,1,3.3,3.3,6.963,6.963,0,0,1,.5,2.5v3.9a5.932,5.932,0,0,1-.5,2.3,7.005,7.005,0,0,1-1.5,1.9,7.994,7.994,0,0,1-2.2,1.3,7.635,7.635,0,0,1-2.7.5h-5.1v4h-3.1V119.2a6.963,6.963,0,0,1,.5-2.5,7.183,7.183,0,0,1,1.4-2,7.706,7.706,0,0,1,2.1-1.4,7.511,7.511,0,0,1,2.6-.5h2.3Zm3.1,6.2a4.253,4.253,0,0,0-.2-1.1,2.075,2.075,0,0,0-.6-1,3.592,3.592,0,0,0-1-.7,2.768,2.768,0,0,0-1.3-.3h-2.2a3.529,3.529,0,0,0-1.4.3,4.13,4.13,0,0,0-1.1.7,3.915,3.915,0,0,0-.8,1,2.768,2.768,0,0,0-.3,1.3v6.6h5.1a7.719,7.719,0,0,0,1.5-.2,6.658,6.658,0,0,0,1.2-.6,6.469,6.469,0,0,0,.8-.9,2.279,2.279,0,0,0,.3-1.1Z" fill="#6300ae"/><path d="M157,112.3a3.922,3.922,0,0,1,1.8.4,4.923,4.923,0,0,1,1.5,1,3.956,3.956,0,0,1,1,1.5,5.84,5.84,0,0,1,.4,1.8v10a6.042,6.042,0,0,1-.5,2.4,8.578,8.578,0,0,1-1.3,2,5.328,5.328,0,0,1-2,1.3,6.874,6.874,0,0,1-2.4.5H147v-3.1h8.3a2.724,2.724,0,0,0,2-.7,2.989,2.989,0,0,0,1-1.7h-7.7a3.922,3.922,0,0,1-1.8-.4,4.923,4.923,0,0,1-1.5-1,7.1,7.1,0,0,1-1-1.4,4.776,4.776,0,0,1-.4-1.8v-4.6a6.874,6.874,0,0,1,.5-2.4,8.578,8.578,0,0,1,1.3-2,5.328,5.328,0,0,1,2-1.3,6.963,6.963,0,0,1,2.5-.5Zm1.5,4.7a1.5,1.5,0,0,0-.4-1.1,1.284,1.284,0,0,0-1-.4h-4.6a5.019,5.019,0,0,0-1.2.2,3.512,3.512,0,0,0-1.7,1.7,2.663,2.663,0,0,0-.3,1.2v4.6a1.367,1.367,0,0,0,1.4,1.4h7.8Z" fill="#6300ae"/><path d="M168.1,126.7a1.4,1.4,0,0,0,.9.3h2.3v3.1H169a5.663,5.663,0,0,1-1.8-.3,3.917,3.917,0,0,1-2.3-2.3,4.671,4.671,0,0,1-.3-1.7V108.6h3.1v17.2A1.884,1.884,0,0,0,168.1,126.7Z" fill="#6300ae"/><path d="M177.1,126.5a3.7,3.7,0,0,0,2.1.6h8.3v3.1h-8.3a7.512,7.512,0,0,1-2.6-.5,7.706,7.706,0,0,1-2.1-1.4,5.956,5.956,0,0,1-1.4-2.1,5.753,5.753,0,0,1-.5-2.6v-4.1a7.511,7.511,0,0,1,.5-2.6,7.706,7.706,0,0,1,1.4-2.1,8.008,8.008,0,0,1,2.1-1.5,5.753,5.753,0,0,1,2.6-.5h4.1a3.914,3.914,0,0,1,4,2.5,3.655,3.655,0,0,1-.1,2.3,4.415,4.415,0,0,1-1.7,2.2Zm-1.5-2.9,8-6.2c.2-.2.4-.3.5-.5a1.689,1.689,0,0,0,.2-.5.52.52,0,0,0-.2-.4,1.483,1.483,0,0,0-.7-.1h-4.1a3.529,3.529,0,0,0-1.4.3,2.836,2.836,0,0,0-1.1.8,7.632,7.632,0,0,0-.8,1.1,3.194,3.194,0,0,0-.3,1.4v4.1Z" fill="#6300ae"/><path d="M195.2,126.2c.5.6,1.4.9,2.9.9h4.7v3.1h-4.7c-2.4,0-4.1-.6-5.2-1.8a8.146,8.146,0,0,1-1.7-5.6v-7h-1.8v-3.1h1.8v-4h3.1v4h8.1v3.1h-8.1v7a12.483,12.483,0,0,0,.2,2.1,3.161,3.161,0,0,0,.7,1.3Z" fill="#6300ae"/></g></svg>