<?xml version="1.0" encoding="UTF-8"?>
<!DOCTYPE svg PUBLIC "-//W3C//DTD SVG 1.1//EN" "http://www.w3.org/Graphics/SVG/1.1/DTD/svg11.dtd">
<!-- Creator: CorelDRAW 2017 -->
<svg xmlns="http://www.w3.org/2000/svg" xml:space="preserve" width="100px" height="100px" version="1.1" shape-rendering="geometricPrecision" text-rendering="geometricPrecision" image-rendering="optimizeQuality" fill-rule="evenodd" clip-rule="evenodd"
viewBox="0 0 21.35 21.35"
 xmlns:xlink="http://www.w3.org/1999/xlink">
 <g id="Layer_x0020_1">
  <metadata id="CorelCorpID_0Corel-Layer"/>
  <path fill="#F25022" fill-rule="nonzero" d="M0 0l10.16 0c0,3.39 0,6.77 0,10.16 -3.39,0 -6.77,0 -10.16,0l0 -10.16z"/>
  <path fill="#80BA01" fill-rule="nonzero" d="M11.2 0l10.15 0c0,3.39 0.01,6.77 0,10.16 -3.38,0 -6.77,0 -10.15,0 0,-3.39 0,-6.77 0,-10.16l0 0z"/>
  <path fill="#02A4EF" fill-rule="nonzero" d="M0 11.2c3.39,0 6.77,-0.01 10.16,0 0,3.38 0,6.77 0,10.15l-10.16 0 0 -10.15z"/>
  <path fill="#FFB902" fill-rule="nonzero" d="M11.2 11.2c3.38,0 6.77,0 10.15,0 0,3.38 0,6.77 0,10.15l-10.15 0c0,-3.38 0,-6.77 0,-10.15z"/>
 </g>
</svg>
