<?xml version="1.0" encoding="UTF-8"?>
<!DOCTYPE svg PUBLIC "-//W3C//DTD SVG 1.1//EN" "http://www.w3.org/Graphics/SVG/1.1/DTD/svg11.dtd">
<!-- Creator: CorelDRAW 2017 -->
<svg xmlns="http://www.w3.org/2000/svg" xml:space="preserve" width="200px" height="200px" version="1.1" shape-rendering="geometricPrecision" text-rendering="geometricPrecision" image-rendering="optimizeQuality" fill-rule="evenodd" clip-rule="evenodd"
viewBox="0 0 78.27 78.27"
 xmlns:xlink="http://www.w3.org/1999/xlink">
 <g id="Layer_x0020_1">
  <metadata id="CorelCorpID_0Corel-Layer"/>
  <path fill="#8700EC" d="M17.06 0l44.15 0c9.42,0 17.06,7.64 17.06,17.06l0 44.14c0,9.42 -7.64,17.05 -17.06,17.05l-44.15 0c-9.42,0 -17.06,-7.63 -17.06,-17.05l0 -44.14c0,-9.42 7.64,-17.06 17.06,-17.06z"/>
  <path fill="#FFA0AD" d="M14.68 52.8l0 25.47 13.73 0 0 -11.94 -0.84 0c-6.6,0 -12.1,-6 -12.89,-13.53z"/>
  <path fill="#FFA0AD" d="M63.59 26.29c-0.06,-6.39 -5.22,-11.55 -11.61,-11.61l-25.69 0c-6.39,0.06 -11.55,5.22 -11.61,11.61l0 25.68c-0.02,0.23 -0.02,0.47 -0.02,0.71 0,0.23 0,0.47 0.02,0.71 0.76,5.83 5.72,10.2 11.61,10.2l25.69 0c6.4,-0.06 11.56,-5.23 11.61,-11.62l0 -25.68z"/>
  <path fill="#8700EC" d="M26.87 34.83l3.52 0c2.09,0 3.79,1.69 3.79,3.78l0 3.53c0,2.08 -1.7,3.78 -3.79,3.78l-3.52 0c-2.09,0 -3.78,-1.7 -3.78,-3.78l0 -3.53c0,-2.09 1.69,-3.78 3.78,-3.78z"/>
  <path fill="#8700EC" d="M47.88 34.83l3.52 0c2.09,0 3.78,1.69 3.78,3.78l0 3.53c0,2.08 -1.69,3.78 -3.78,3.78l-3.52 0c-2.09,0 -3.79,-1.7 -3.79,-3.78l0 -3.53c0,-2.09 1.7,-3.78 3.79,-3.78z"/>
 </g>
</svg>
